<?xml version="1.0" standalone="no"?>
<!DOCTYPE svg PUBLIC "-//W3C//DTD SVG 20010904//EN"
 "http://www.w3.org/TR/2001/REC-SVG-20010904/DTD/svg10.dtd">
<svg version="1.0" xmlns="http://www.w3.org/2000/svg"
 width="842.000000pt" height="842.000000pt" viewBox="0 0 842.000000 842.000000"
 preserveAspectRatio="xMidYMid meet">
<metadata>
Created by potrace 1.11, written by Peter Selinger 2001-2013
</metadata>
<g transform="translate(0.000000,842.000000) scale(0.100000,-0.100000)"
fill="#000000" stroke="none">
<path d="M4660 7194 c-25 -20 -79 -61 -120 -92 -41 -31 -77 -59 -80 -62 -11
-12 -117 -90 -122 -90 -5 0 -65 93 -111 173 -11 18 -23 36 -27 41 -5 5 -75
-57 -165 -148 -86 -87 -158 -156 -159 -154 -1 2 -15 19 -31 39 -17 19 -41 50
-54 67 l-25 33 -20 -25 c-12 -14 -59 -89 -106 -165 -47 -77 -88 -140 -92 -141
-4 0 -20 19 -37 43 l-30 43 -134 -45 -135 -45 -29 -48 c-15 -26 -31 -48 -35
-48 -5 0 -8 -4 -8 -9 0 -5 -18 -37 -41 -71 -42 -63 -115 -209 -111 -222 1 -5
-3 -8 -9 -8 -5 0 -8 -4 -5 -8 5 -9 -44 -25 -214 -68 -84 -21 -153 -51 -345
-146 -214 -107 -346 -162 -555 -230 -36 -12 -119 -52 -186 -90 -114 -64 -123
-71 -164 -135 -29 -46 -58 -112 -87 -203 -24 -74 -46 -142 -50 -150 -3 -8 -7
-19 -8 -25 -2 -5 -13 -41 -26 -80 -13 -38 -24 -72 -24 -75 -1 -3 -4 -12 -8
-20 -3 -8 -15 -46 -27 -85 -12 -38 -59 -142 -105 -230 -153 -293 -214 -413
-210 -417 3 -3 12 -94 14 -147 1 -8 4 -12 7 -8 3 3 25 -9 48 -27 42 -32 225
-126 246 -126 5 0 10 -4 10 -10 0 -5 5 -10 11 -10 7 0 82 -35 168 -77 134 -66
179 -83 321 -118 189 -48 188 -44 20 -101 -47 -15 -87 -31 -90 -34 -3 -3 -16
-6 -30 -8 -13 -1 -28 -8 -32 -15 -4 -6 -8 -9 -8 -5 0 5 -139 -37 -220 -68 -8
-3 -15 -5 -15 -4 0 1 -13 -4 -30 -10 -16 -7 -40 -14 -52 -16 -13 -2 -35 -6
-50 -9 -16 -3 -50 -7 -78 -10 -27 -3 -63 -8 -80 -10 -16 -2 -52 -7 -80 -10
-27 -3 -61 -8 -75 -11 -91 -20 -178 -20 -400 1 -25 2 -85 7 -135 10 -49 3 -98
8 -107 11 -16 5 -36 -25 -138 -201 -10 -16 -43 -73 -73 -125 -57 -96 -59 -103
-37 -170 4 -14 13 -45 20 -70 7 -25 14 -52 17 -60 2 -8 4 -16 5 -17 0 -1 11
-40 25 -85 13 -46 26 -90 28 -98 2 -8 4 -15 5 -15 1 0 4 -11 6 -24 2 -14 7
-27 9 -30 3 -2 42 -3 88 -2 45 1 154 4 242 6 196 4 489 15 530 20 36 4 48 -2
38 -18 -4 -7 -8 -14 -8 -17 -1 -3 -11 -27 -24 -55 -12 -27 -24 -54 -25 -60 -1
-5 -5 -16 -9 -23 -5 -6 -5 -12 0 -12 4 0 2 -4 -4 -8 -7 -4 -14 -17 -16 -27 -5
-31 -29 -70 -70 -115 -38 -40 -39 -42 -32 -98 7 -54 11 -97 14 -133 1 -11 15
-19 44 -24 23 -4 49 -9 57 -11 74 -18 176 -7 174 18 -1 9 4 14 10 12 19 -7
219 195 280 283 31 45 56 85 56 88 0 3 11 18 25 33 14 15 25 32 25 38 0 6 9
19 20 29 11 10 20 23 20 29 0 6 28 43 63 82 34 39 80 92 102 118 46 55 72 71
135 81 25 4 54 9 65 11 11 3 35 7 54 10 18 3 42 8 52 10 45 10 56 12 99 19 25
4 54 9 65 11 10 2 37 6 59 10 22 3 44 7 47 10 4 2 24 6 44 9 21 2 56 7 79 11
22 3 52 8 66 9 14 2 41 6 61 9 36 5 37 5 54 -42 33 -85 49 -104 145 -169 l95
-64 70 6 c38 4 76 10 83 14 27 15 204 196 220 225 9 17 20 33 24 36 13 10 56
104 52 112 -6 9 13 6 76 -11 25 -7 52 -15 60 -16 8 -2 49 -14 90 -25 41 -12
80 -23 85 -24 8 -2 51 -15 105 -31 6 -2 96 -41 135 -59 17 -8 74 -33 127 -56
86 -38 104 -50 150 -104 29 -33 66 -73 81 -88 16 -16 27 -28 24 -28 -11 0 60
-66 83 -77 75 -35 130 -39 130 -9 0 8 3 16 8 18 14 6 86 108 89 125 1 10 4 46
5 80 2 35 5 63 8 63 3 0 5 17 5 38 0 36 -25 78 -88 147 -10 11 -27 35 -38 53
-12 17 -25 32 -30 32 -20 0 -8 30 14 31 12 1 38 3 57 5 51 6 123 6 140 1 8 -2
22 -6 30 -9 13 -5 93 -29 113 -34 4 -1 15 -2 25 -3 31 -2 44 -17 49 -56 3 -21
13 -55 23 -74 10 -20 26 -54 35 -76 42 -100 61 -135 75 -136 92 -7 133 0 168
29 40 32 46 62 29 132 -13 49 -16 83 -7 73 5 -4 10 -21 13 -38 12 -74 66 -166
137 -233 l25 -23 -25 7 c-14 4 -27 10 -30 14 -3 4 -21 30 -40 58 -33 48 -50
63 -50 44 0 -4 20 -37 45 -72 l45 -64 62 -2 63 -3 98 94 c54 52 100 95 103 95
2 0 4 -6 4 -13 0 -7 23 -45 51 -85 35 -51 57 -72 72 -73 12 0 47 -8 77 -18 40
-13 63 -16 85 -9 16 5 38 11 47 13 9 2 26 9 37 15 12 6 21 8 21 4 0 -3 16 4
37 16 28 16 45 20 75 15 21 -4 38 -12 38 -19 0 -6 -9 -36 -20 -66 -11 -30 -22
-64 -25 -75 -2 -11 -12 -45 -23 -75 -11 -30 -18 -73 -17 -95 3 -42 12 -231 21
-425 3 -63 5 -125 5 -136 0 -12 32 -82 73 -155 114 -209 169 -311 185 -346 9
-18 19 -32 23 -33 4 0 55 -23 115 -51 59 -28 135 -64 168 -79 33 -16 108 -51
167 -78 59 -28 122 -56 141 -63 36 -13 12 -18 351 70 65 17 123 34 130 38 6 4
54 38 106 75 52 37 103 73 113 80 20 14 180 128 209 150 10 7 39 28 65 47 46
33 51 42 122 210 41 97 82 194 92 216 10 22 30 69 45 105 15 36 34 81 42 100
9 19 16 37 17 40 0 3 3 10 7 16 7 10 4 282 -5 579 -3 102 -15 170 -37 220 -5
11 -11 31 -13 45 -8 43 -58 214 -68 232 -5 10 -9 24 -9 31 0 32 -46 148 -121
309 -45 95 -95 202 -111 238 -16 36 -40 86 -53 112 -13 25 -21 48 -19 51 2 2
-2 10 -11 17 -8 7 -15 18 -15 25 0 7 -18 50 -40 94 -22 45 -38 86 -35 91 3 4
30 18 60 31 30 12 55 26 55 30 0 4 -17 27 -37 51 -21 25 -58 68 -83 98 -25 29
-50 58 -55 64 -62 67 -65 75 -60 144 l6 66 -53 48 c-115 107 -148 140 -144
147 5 8 13 47 22 101 5 33 2 37 -28 53 -51 26 -96 53 -113 67 -8 7 -15 9 -15
5 0 -5 -8 -1 -17 7 -10 9 -34 24 -53 35 -66 37 -100 58 -100 64 0 3 25 36 54
74 l55 68 -37 20 c-20 10 -62 34 -92 52 -30 18 -71 42 -90 52 -113 63 -150 85
-150 90 0 3 18 33 40 66 31 46 38 62 28 69 -7 4 -17 8 -21 8 -5 0 -23 6 -40
14 -56 26 -192 76 -204 76 -16 0 -11 36 8 58 8 9 27 38 42 64 l27 46 -73 38
c-39 21 -107 56 -150 78 l-77 40 5 45 c3 25 8 54 11 64 6 19 13 67 9 67 -1 0
-69 12 -140 25 -16 3 -46 8 -65 11 -19 3 -42 7 -50 9 -8 2 -35 7 -60 11 -25 3
-52 8 -60 9 -8 2 -20 4 -26 4 -7 1 -12 34 -12 98 -1 53 -5 100 -9 104 -5 4
-27 10 -51 13 -24 3 -46 8 -50 10 -4 2 -27 7 -51 11 -24 3 -55 11 -70 16 -14
6 -27 10 -28 10 -9 -3 -9 4 5 52 28 101 28 107 -4 108 -16 0 -65 3 -109 6 -44
4 -106 7 -137 7 -32 1 -58 4 -58 8 0 4 -9 5 -20 3 -15 -3 -20 2 -21 18 -1 12
-2 33 -4 47 -2 14 -4 40 -6 58 -2 17 -8 32 -14 33 -13 2 -33 1 -211 -6 l-152
-6 -11 58 c-6 32 -13 67 -15 78 -1 11 -6 34 -10 51 l-7 32 -87 -44 c-47 -24
-92 -44 -98 -44 -7 0 -14 -3 -16 -8 -5 -13 -108 -60 -113 -52 -3 5 -12 42 -20
84 -21 111 -22 112 -75 70z m-3560 -3090 c0 -2 -9 0 -20 6 -11 6 -20 13 -20
16 0 2 9 0 20 -6 11 -6 20 -13 20 -16z m45 -14 c3 -5 34 -23 68 -39 34 -16
112 -52 172 -80 61 -29 128 -61 150 -71 50 -23 161 -63 238 -85 93 -27 65 -33
-37 -8 -53 13 -136 44 -192 72 -55 27 -172 84 -261 127 -90 43 -163 82 -163
86 0 11 18 10 25 -2z m745 -310 c0 -5 -7 -10 -15 -10 -8 0 -15 5 -15 10 0 6 7
10 15 10 8 0 15 -4 15 -10z m198 -37 c31 -3 129 -7 217 -8 186 -2 200 -3 192
-11 -6 -6 -168 -5 -347 1 -90 4 -225 29 -243 45 -5 5 21 2 57 -6 37 -8 92 -17
124 -21z m-108 -27 c0 -2 -7 -7 -16 -10 -8 -3 -12 -2 -9 4 6 10 25 14 25 6z
m-1650 -256 c0 -5 -5 -10 -11 -10 -5 0 -7 5 -4 10 3 6 8 10 11 10 2 0 4 -4 4
-10z m2560 -4 c0 -2 -8 -10 -17 -17 -16 -13 -17 -12 -4 4 13 16 21 21 21 13z
m76 -11 c18 -14 17 -14 -9 -3 -26 11 -31 9 -70 -28 l-42 -39 40 43 c43 46 52
49 81 27z m-116 -39 c0 -2 -7 -7 -16 -10 -8 -3 -12 -2 -9 4 6 10 25 14 25 6z
m200 -10 c0 -2 -7 -7 -16 -10 -8 -3 -12 -2 -9 4 6 10 25 14 25 6z m665 -71 c3
-52 -1 -81 -17 -124 -11 -31 -23 -58 -25 -61 -4 -4 -17 10 -82 90 -19 24 -40
48 -45 54 -13 13 -20 86 -8 86 4 0 14 -21 20 -47 15 -53 64 -124 99 -140 21
-10 24 -8 34 30 7 23 11 75 11 116 -2 91 7 89 13 -4z m97 -22 c27 -82 47 -123
80 -165 39 -50 26 -48 -20 2 -32 37 -72 131 -87 209 -7 39 7 15 27 -46z m-992
42 c-7 -8 -17 -15 -23 -15 -6 0 -2 7 9 15 25 19 30 19 14 0z m490 2 c0 -2 -15
-16 -32 -33 l-33 -29 29 33 c28 30 36 37 36 29z m30 -50 c0 -5 -5 -5 -10 -2
-6 4 -22 0 -35 -9 -38 -25 -39 -19 -3 13 31 27 47 26 48 -2z m-557 16 c-7 -2
-13 -11 -13 -18 0 -8 -5 -17 -12 -21 -6 -4 -9 -3 -6 2 3 5 8 17 11 27 4 9 12
17 19 16 10 0 10 -2 1 -6z m1223 -30 c-2 -16 -7 -44 -10 -63 -4 -19 -20 -50
-36 -69 -17 -18 -30 -32 -30 -30 0 2 14 31 30 63 17 32 30 67 30 77 0 20 10
49 17 49 2 0 2 -12 -1 -27z m-756 -7 c0 -2 -7 -7 -16 -10 -8 -3 -12 -2 -9 4 6
10 25 14 25 6z m-40 -71 c-43 -44 -50 -50 -50 -41 0 6 84 86 90 86 2 0 -16
-20 -40 -45z m140 35 c0 -5 -5 -10 -11 -10 -5 0 -7 5 -4 10 3 6 8 10 11 10 2
0 4 -4 4 -10z m-600 -34 c0 -3 -4 -8 -10 -11 -5 -3 -10 -1 -10 4 0 6 5 11 10
11 6 0 10 -2 10 -4z m600 -6 c0 -5 -2 -10 -4 -10 -3 0 -8 5 -11 10 -3 6 -1 10
4 10 6 0 11 -4 11 -10z m-240 -55 c-50 -51 -46 -49 -56 -33 -4 6 -3 8 3 5 5
-3 27 12 48 33 22 22 41 40 44 40 3 0 -15 -20 -39 -45z m771 -42 c13 -16 12
-17 -3 -4 -17 13 -22 21 -14 21 2 0 10 -8 17 -17z m-531 3 c0 -3 -4 -8 -10
-11 -5 -3 -10 -1 -10 4 0 6 5 11 10 11 6 0 10 -2 10 -4z m-647 -41 c-3 -9 -8
-14 -10 -11 -3 3 -2 9 2 15 9 16 15 13 8 -4z m2234 -35 c12 -77 81 -224 121
-257 l27 -22 -25 6 c-37 9 -45 18 -60 65 -8 24 -17 45 -20 48 -4 3 -17 32 -30
65 -13 33 -27 65 -31 70 -4 6 -6 20 -4 30 2 11 4 22 4 24 2 10 15 -11 18 -29z
m-2256 -27 c-12 -20 -14 -14 -5 12 4 9 9 14 11 11 3 -2 0 -13 -6 -23z m635 -1
c-17 -16 -18 -16 -5 5 7 12 15 20 18 17 3 -2 -3 -12 -13 -22z m1882 -61 c1 -9
5 -32 7 -51 4 -31 3 -29 -14 15 -10 28 -22 59 -26 70 -9 20 -9 20 10 1 11 -10
21 -26 23 -35z m-1888 35 c0 -2 -8 -10 -17 -17 -16 -13 -17 -12 -4 4 13 16 21
21 21 13z m575 -44 c-3 -3 -11 0 -18 7 -9 10 -8 11 6 5 10 -3 15 -9 12 -12z
m-612 -9 c-7 -3 -13 -9 -13 -13 0 -15 -203 -210 -218 -210 -7 0 13 22 45 48
32 27 87 81 123 120 35 39 67 69 70 65 3 -3 -1 -8 -7 -10z m1331 -29 c3 -8 2
-12 -4 -9 -6 3 -10 10 -10 16 0 14 7 11 14 -7z m-1875 -41 c7 -16 27 -39 46
-53 18 -14 32 -27 30 -28 -9 -9 -69 48 -87 82 -11 21 -15 35 -10 32 5 -3 15
-18 21 -33z m2904 10 c4 -3 -35 -46 -86 -94 -64 -61 -100 -89 -116 -89 -22 0
-19 4 20 29 24 15 71 58 104 93 63 68 67 72 78 61z m-417 -32 c0 -11 -15 -32
-31 -48 -24 -22 -36 -27 -55 -22 -22 6 -23 7 -4 8 30 1 74 39 74 62 0 10 4 19
9 19 4 0 8 -9 7 -19z m487 -1 c3 -11 1 -18 -4 -14 -5 3 -9 12 -9 20 0 20 7 17
13 -6z m-2812 -117 c13 -16 12 -17 -3 -4 -17 13 -22 21 -14 21 2 0 10 -8 17
-17z m2909 -11 c-7 -3 -19 3 -28 13 -16 15 -15 16 12 4 15 -7 23 -15 16 -17z
m309 25 c-10 -8 -89 -36 -89 -32 0 7 61 33 79 34 8 1 12 -1 10 -2z m-3129 -33
c0 -2 -16 -4 -35 -4 -19 0 -35 4 -35 8 0 4 16 6 35 4 19 -2 35 -6 35 -8z
m-1839 -47 c-10 -9 -11 -8 -5 6 3 10 9 15 12 12 3 -3 0 -11 -7 -18z m3243 -86
c-3 -3 -15 6 -27 18 l-22 24 27 -19 c14 -10 24 -21 22 -23z m-2923 -234 c-10
-9 -11 -8 -5 6 3 10 9 15 12 12 3 -3 0 -11 -7 -18z m-11 -21 c0 -2 -8 -10 -17
-17 -16 -13 -17 -12 -4 4 13 16 21 21 21 13z m-30 -39 c0 -2 -19 -21 -42 -42
l-43 -40 40 43 c36 39 45 47 45 39z m-377 -75 c30 -15 127 -109 127 -123 0
-11 -20 -12 -20 -1 -1 9 -85 102 -94 102 -4 0 -24 11 -44 25 -38 26 -58 32
-47 15 3 -6 -1 -7 -9 -4 -9 3 -16 10 -16 16 0 5 -4 6 -10 3 -5 -3 -10 -2 -10
4 0 18 25 18 60 -2 19 -11 48 -27 63 -35z m64 -168 c-3 -3 -12 -4 -19 -1 -8 3
-5 6 6 6 11 1 17 -2 13 -5z"/>
</g>
</svg>
